<svg xmlns="http://www.w3.org/2000/svg" data-name="Layer 1" width="804.473" height="781.847"><path d="M756.855 215.792a380.704 380.704 0 00-25.02-39.265q-9.6-13.224-20.289-25.565h-.017a383.418 383.418 0 00-41.94-41.511q-4.613-3.918-9.35-7.675a380.926 380.926 0 00-93.882-54.857l.3 49.327 3.23 562.303H289.921L274.177 97.307l1.173-48.54C138.093 106.495 41.718 242.223 41.718 400.47a381.687 381.687 0 0012.399 96.795 375.139 375.139 0 0012.648 39.408q2.675 7.02 5.643 13.914a296.284 296.284 0 002.933 6.668 302.1 302.1 0 004.02 8.61q1.604 3.357 3.298 6.668 2.18 4.346 4.501 8.62a322.637 322.637 0 003.673 6.667 382.934 382.934 0 0076.15 95.245q12.957 11.752 26.965 22.284a381.45 381.45 0 00458.295 0q7.621-5.723 14.93-11.828 4.854-4.038 9.547-8.228c.83-.74 1.658-1.48 2.478-2.228a382.978 382.978 0 0071.364-87.008 374.258 374.258 0 0019.325-36.69q2.287-4.973 4.43-10.036a376.132 376.132 0 0016.562-47.591q1.03-3.757 1.988-7.541v-.01c.107-.436.223-.882.33-1.318.66-2.657 1.292-5.33 1.899-8.005v-.009q2.941-12.93 4.965-26.171c.169-1.132.338-2.264.499-3.396.062-.41.125-.82.17-1.23v-.01q1.443-10.228 2.343-20.608 1.391-16.299 1.4-32.972a379.627 379.627 0 00-47.618-184.677z" fill="#f2f2f2"/><path d="M719.402 630.685c22.573-30.5 31.254-73.463 13.695-107.1a174.83 174.83 0 01-82.773 86.926c-14.29 7.006-30.912 13.31-37.526 27.784-4.116 9.007-3.332 19.642-.024 28.974 3.31 9.334 8.936 17.638 14.504 25.827l.293 2.454c35.052-14.533 69.257-34.364 91.83-64.865z" fill="#e6e6e6"/><path d="M732.348 523.854a149.432 149.432 0 01-31.086 86.525 64.35 64.35 0 01-14.424 14.088 36.908 36.908 0 01-18.452 6.069c-6.13.439-12.453.178-18.37 2.1a22.599 22.599 0 00-13.521 12.6c-3.276 7.232-3.759 15.21-3.96 23.027-.222 8.68-.316 17.7-4.41 25.59-.496.956 1.016 1.67 1.511.715 7.124-13.728 2.498-29.782 6.743-44.213 1.981-6.734 6.003-12.912 12.726-15.61 5.88-2.36 12.399-2.097 18.61-2.488a39.384 39.384 0 0018.264-5.262 59.49 59.49 0 0014.912-13.481 144.976 144.976 0 0022.71-39.21 152.082 152.082 0 0010.413-50.595c.035-1.073-1.632-.92-1.666.145z" fill="#fff"/><path d="M707.915 602.739a22.42 22.42 0 0028.554-5.242c.678-.836-.59-1.928-1.268-1.092a20.76 20.76 0 01-26.571 4.822c-.93-.542-1.64.973-.715 1.512zm-36.391 27.983a43.212 43.212 0 013.185-31.33c.493-.958-1.02-1.672-1.512-.715a44.947 44.947 0 00-3.248 32.608c.293 1.038 1.866.47 1.575-.563zm56.192-72.488a12.69 12.69 0 01-8.29-8.735c-.278-1.04-1.851-.471-1.574.563a14.22 14.22 0 009.149 9.684.864.864 0 001.113-.399.84.84 0 00-.398-1.113z" fill="#fff"/><path d="M607.441 496.815c.156.655.312 1.31.458 1.975a167.127 167.127 0 013.973 26.818c.057.698.104 1.406.141 2.104a176.19 176.19 0 01-8.405 64.32 171.102 171.102 0 01-9.932 24.026c-5.408 10.695-12.123 21.862-13.637 33.38a29.352 29.352 0 00-.29 3.621l44.805 42.659c.15.046.292.102.443.149l1.71 1.785c.23-.386.46-.79.69-1.176.135-.223.26-.455.393-.678.087-.152.173-.304.26-.436a3.71 3.71 0 00.076-.141c.086-.132.153-.264.23-.386q1.938-3.387 3.836-6.813c.01-.01.01-.01.01-.03 9.595-17.427 17.82-35.81 22.993-54.855.155-.573.321-1.156.456-1.748a163.269 163.269 0 004.717-26.224 144.339 144.339 0 00.62-14.591 120.027 120.027 0 00-6.239-37.006c-7.992-23.784-23.502-44.748-45.61-55.917a89.03 89.03 0 00-1.698-.836z" fill="#e6e6e6"/><path d="M607 497.48a149.432 149.432 0 0127.274 87.8 64.35 64.35 0 01-3.034 19.933 36.908 36.908 0 01-11.08 15.955c-4.63 4.042-9.835 7.64-13.403 12.738a22.599 22.599 0 00-3.21 18.2c1.739 7.747 6.157 14.407 10.703 20.77 5.048 7.064 10.404 14.322 11.885 23.088.18 1.062 1.817.721 1.638-.34-2.578-15.25-15.936-25.283-21.236-39.361-2.473-6.57-2.98-13.924.762-20.126 3.274-5.424 8.638-9.139 13.362-13.191a39.384 39.384 0 0011.414-15.197 59.49 59.49 0 003.79-19.742 144.976 144.976 0 00-5.474-44.98 152.082 152.082 0 00-22.148-46.667c-.618-.877-1.857.248-1.243 1.12z" fill="#fff"/><path d="M634.986 575.175a22.42 22.42 0 0019.643-21.377c.038-1.075-1.631-1.185-1.67-.108a20.76 20.76 0 01-18.312 19.847c-1.069.127-.724 1.764.339 1.638zm-12.208 44.253a43.212 43.212 0 01-16.32-26.933c-.183-1.062-1.82-.721-1.638.339a44.947 44.947 0 0017.04 27.991c.858.653 1.772-.748.918-1.397zm1.223-91.71a12.69 12.69 0 01-11.877-1.983c-.85-.663-1.763.739-.919 1.398a14.22 14.22 0 0013.135 2.223.864.864 0 00.65-.988.84.84 0 00-.989-.65z" fill="#fff"/><path d="M17.804 459.858c-20.02-32.234-25.181-75.76-4.946-107.86a174.83 174.83 0 0075.435 93.367c13.673 8.143 29.728 15.777 35.144 30.742 3.37 9.31 1.724 19.847-2.331 28.88-4.057 9.033-10.34 16.853-16.555 24.562l-.492 2.423c-33.755-17.334-66.235-39.88-86.255-72.114z" fill="#e6e6e6"/><path d="M13.582 352.328a149.432 149.432 0 0023.952 88.765 64.35 64.35 0 0013.23 15.214 36.908 36.908 0 0017.899 7.548c6.075.936 12.397 1.19 18.139 3.587a22.599 22.599 0 0112.452 13.657c2.678 7.474 2.51 15.464 2.075 23.272-.484 8.67-1.123 17.667 2.316 25.864.417.993-1.148 1.582-1.564.59-5.984-14.262-.07-29.886-3.128-44.615-1.427-6.873-4.934-13.357-11.415-16.593-5.668-2.83-12.187-3.098-18.346-3.992a39.384 39.384 0 01-17.776-6.729 59.49 59.49 0 01-13.767-14.648A144.976 144.976 0 0118.2 403.323a152.082 152.082 0 01-6.267-51.275c.054-1.072 1.702-.785 1.65.28z" fill="#fff"/><path d="M31.524 432.938a22.42 22.42 0 01-28.033-7.545c-.608-.888.743-1.874 1.352-.985a20.76 20.76 0 0026.091 6.965c.97-.465 1.555 1.103.59 1.565zm33.996 30.848a43.212 43.212 0 00-.628-31.485c-.413-.995 1.152-1.584 1.565-.59a44.947 44.947 0 01.587 32.764c-.376 1.011-1.898.316-1.524-.689zM15.405 386.97a12.69 12.69 0 008.972-8.031c.362-1.015 1.884-.32 1.523.689a14.22 14.22 0 01-9.905 8.908.864.864 0 01-1.077-.488.84.84 0 01.487-1.077z" fill="#fff"/><path d="M140.274 335.53c-.209.64-.417 1.28-.617 1.931a167.128 167.128 0 00-6.14 26.407 73.51 73.51 0 00-.311 2.084 176.19 176.19 0 003.15 64.792 171.101 171.101 0 007.947 24.752c4.52 11.1 10.306 22.775 10.879 34.379a29.352 29.352 0 01-.005 3.633l-48.124 38.876c-.154.033-.3.078-.453.112l-1.85 1.64c-.199-.403-.395-.825-.593-1.227-.115-.234-.22-.475-.336-.709-.074-.158-.147-.316-.223-.455a2.345 2.345 0 01-.065-.147c-.075-.139-.13-.275-.197-.403q-1.657-3.533-3.27-7.102c-.01-.011-.01-.011-.007-.03-8.148-18.15-14.851-37.14-18.46-56.543-.108-.584-.226-1.178-.312-1.78a163.271 163.271 0 01-2.57-26.52 144.342 144.342 0 01.567-14.593 120.027 120.027 0 019.226-36.376c9.899-23.057 27.06-42.691 50.004-52.026a88.37 88.37 0 011.76-.696z" fill="#e6e6e6"/><path d="M140.659 336.227a149.432 149.432 0 00-34.319 85.295 64.35 64.35 0 001.405 20.113 36.908 36.908 0 009.746 16.803c4.287 4.405 9.182 8.414 12.323 13.784a22.599 22.599 0 011.72 18.402c-2.362 7.58-7.306 13.858-12.355 19.83-5.605 6.632-11.533 13.43-13.722 22.046-.265 1.044-1.87.572-1.605-.47 3.809-14.99 17.939-23.905 24.365-37.507 2.998-6.346 4.102-13.635.875-20.12-2.821-5.673-7.865-9.811-12.245-14.234a39.384 39.384 0 01-10.141-16.074 59.49 59.49 0 01-2.173-19.985 144.976 144.976 0 019.11-44.386 152.082 152.082 0 0125.868-44.713c.688-.824 1.831.398 1.148 1.216z" fill="#fff"/><path d="M106.452 411.392a22.42 22.42 0 01-17.84-22.903.837.837 0 011.672.028 20.76 20.76 0 0016.639 21.27c1.055.214.578 1.817-.471 1.605zm8.571 45.098a43.212 43.212 0 0018.455-25.517c.269-1.043 1.873-.571 1.604.47a44.947 44.947 0 01-19.257 26.515c-.909.58-1.706-.89-.802-1.468zm6.234-91.505a12.69 12.69 0 0012-1.012c.9-.592 1.696.88.8 1.468a14.22 14.22 0 01-13.271 1.149.864.864 0 01-.567-1.038.84.84 0 011.038-.567z" fill="#fff"/><circle cx="389.439" cy="77.833" r="52.985" fill="#ff6584"/><path d="M551.669 75.068a194.727 194.727 0 00-15.1-14.333c-10.322-8.754-21.75-16.197-34.488-20.885a79.528 79.528 0 00-14.797-3.896c-.606-.098-1.203-.196-1.81-.276a.67.67 0 00-.133 0 1.609 1.609 0 00-.285-.054 65.057 65.057 0 00-3.726-.374 64.567 64.567 0 00-20.003 1.8 66.52 66.52 0 00-11.053 3.851 98.948 98.948 0 00-10.367 5.875 62.285 62.285 0 01-5.526 2.986 68.93 68.93 0 01-17.382 5.562 78.041 78.041 0 01-12.301 1.212c-3.584.072-6.962.196-10.358 1.489a24.822 24.822 0 00-15.127 16.383 1.597 1.597 0 00.713 1.756c.918.66 1.81 1.409 2.781 1.997a8.727 8.727 0 002.71.74q2.3.481 4.609.936 8.49 1.685 17.052 2.986 17.221 2.607 34.639 3.673a1.73 1.73 0 00.214.017 389.854 389.854 0 0039.399.384c1.988-.08 3.966-.179 5.954-.294q12.422-.696 24.78-2.193 11.433-1.39 22.775-3.45 8.103-1.47 16.143-3.28a1.579 1.579 0 00.687-2.612zm-110.13 70.651a173.068 173.068 0 00-25.235-22.213 118.782 118.782 0 00-9.333-5.946 98.906 98.906 0 00-12.194-5.963 84.009 84.009 0 00-2.826-1.096 78.986 78.986 0 00-16.606-4.172c-.045-.009-.09 0-.134-.009l-.276-.054a61.346 61.346 0 00-8.29-.508c-1.988 0-3.985.107-5.964.303a65.946 65.946 0 00-9.484 1.64 58.555 58.555 0 00-4.582 1.338 65.441 65.441 0 00-6.462 2.513c-.036.018-.063.027-.098.045a96.29 96.29 0 00-10.269 5.83c-.071.044-.151.089-.223.133a64.774 64.774 0 01-11.837 5.545 72.094 72.094 0 01-10.857 2.87 76.88 76.88 0 01-12.301 1.203c-3.584.072-6.962.196-10.35 1.498a24.835 24.835 0 00-15.135 16.383 1.607 1.607 0 00.713 1.756c.918.66 1.819 1.4 2.781 1.988a8.553 8.553 0 002.71.74c1.533.321 3.066.642 4.608.945q8.49 1.685 17.062 2.977 11.752 1.778 23.603 2.844 5.616.521 11.24.855 14.428.87 28.881.678 2.982-.04 5.964-.134 17.703-.521 35.298-2.656a388.256 388.256 0 0038.91-6.73 1.572 1.572 0 00.686-2.603z" fill="#e6e6e6"/><path d="M309.468 3.518l46.679 645.056-93.358 8.286V11.725c11.125-8.69 27.094-10.05 46.68-8.207zm230.415 0l-46.679 645.056 93.358 8.286V11.725c-11.125-8.69-27.093-10.05-46.679-8.207z" fill="#ccc"/><path d="M588.759 12.006C585.862 4.903 579.702 0 572.58 0H275.777c-9.904 0-17.953 9.502-17.953 21.192v641.134a22.91 22.91 0 006.186 15.994 17.01 17.01 0 007.773 4.662 14.837 14.837 0 003.994.536H572.58a14.837 14.837 0 003.993-.536c7.987-2.147 13.96-10.586 13.96-20.656V21.193a24.342 24.342 0 00-1.774-9.187zm-4.181 650.32c0 7.807-5.384 14.163-11.998 14.163H275.777c-5.482 0-10.126-4.367-11.544-10.312a16.45 16.45 0 01-.454-3.851V21.193c0-7.808 5.384-14.153 11.998-14.153H572.58a10.18 10.18 0 013.565.642c4.876 1.788 8.433 7.165 8.433 13.51z" fill="#ccc"/><path fill="#ccc" d="M260.803 194.882h326.752v5.959H260.803zm0-123.01h326.752v5.959H260.803zm0 222.327h326.752v5.959H260.803z"/><path fill="#ccc" d="M360.878 2.674h5.959v375.944h-5.959zm120.643 0h5.959v375.944h-5.959zm143.276 643.602H233.49a26.844 26.844 0 00-26.812 26.813 26.543 26.543 0 001.934 9.975 26.815 26.815 0 0024.878 16.847h391.308a26.815 26.815 0 0023.14-13.282 25.895 25.895 0 001.747-3.565 26.543 26.543 0 001.935-9.975 26.852 26.852 0 00-26.822-26.813z"/><path fill="#ccc" d="M262.789 364.714h324.766v19.863H262.789z"/><path d="M422.193 358.755h5.959a10.925 10.925 0 0110.925 10.925h-27.81a10.925 10.925 0 0110.926-10.925z" fill="#ccc"/><circle data-name="ab6171fa-7d69-4734-b81c-8dff60f9761b" cx="430.901" cy="359.185" r="61.548" fill="#ffb8b8"/><path data-name="bf427902-b9bf-4946-b5d7-5c1c7e04535e" d="M362.243 299.976c.465-7.068 5.14-14.3 19.99-18.08 0 0 25.485-32.59 60.118-15.5 0 0 16.79-2.888 29.24 14.532 0 0 12.343-7.28 17.55 5.624 0 0 14.477 26.32 9.147 53.167s-8.057 30.197-8.057 30.197 6.793-55.532-32.335-51.681-70.631-9.91-79.492 20.218c-7.358 25.016-6.431 38.009-6.431 38.009s-24.605-24.956-16.24-44.608c4.28-10.05 5.792-20.978 6.51-31.878z" fill="#2f2e41"/><path d="M263.529 695.543h340.438c-2.276-25.969-3.763-125.235-3.763-131.769 0-28.815-23.579-60.262-23.579-60.262l-8.44-4.665-70.482-21.99-18.24-23.694a20.283 20.283 0 00-16.245-7.931l-57.619.432a20.344 20.344 0 00-13.664 5.415l-35.68 33.1-52.331 24.989-.089-.089-.547.407-7.766 5.593-4.995 3.61s-13.105 15.723-23.58 62.88c-1.575 7.094-2.681 98.911-3.418 113.974z" fill="#ffbf63"/><path d="M682.764 683.064c-.82.748-1.65 1.488-2.478 2.228q-4.707 4.185-9.547 8.227-7.314 6.097-14.93 11.83H197.512q-13.999-10.51-26.964-22.285z" fill="#ccc"/><path fill="#2f2e41" d="M514.774 688.412H346.303l3.565-16.936h161.34l3.566 16.936z"/><path d="M667.191 615.319h-43.838a6.771 6.771 0 00-5.197 2.406 9.829 9.829 0 00-1.854-.178 10.398 10.398 0 100 20.796 10.28 10.28 0 004.528-1.052l.731 8.985 2.906 35.513a6.483 6.483 0 00.553 1.275 6.834 6.834 0 005.999 3.565h28.506a6.859 6.859 0 006.008-3.565 7.03 7.03 0 00.544-1.275l7.666-57.601a6.854 6.854 0 00-6.552-8.87zm-50.889 20.056a7.43 7.43 0 010-14.86c.134 0 .259.036.392.045a6.806 6.806 0 00.107 3.628l3.138 10.197a7.308 7.308 0 01-3.637.99zm-48.125-208.521H290.672a9.008 9.008 0 00-8.994 8.994v187.261a9.003 9.003 0 008.994 8.994h277.505a9.003 9.003 0 008.994-8.994V435.848a9.008 9.008 0 00-8.994-8.994z" fill="#3f3d56"/><path d="M460.676 576.9h-64.92a3.464 3.464 0 00-3.458 3.468V682.92h71.845V580.368a3.466 3.466 0 00-3.467-3.468zm-32.241 58.27a7.702 7.702 0 01-7.666-7.666v-11.829a7.666 7.666 0 0115.332 0v11.829a7.702 7.702 0 01-7.666 7.666z" fill="#2f2e41"/><path d="M392.075 679.64v9.895a1.938 1.938 0 001.935 1.934h68.422a1.944 1.944 0 001.934-1.934v-9.894z" fill="#3f3d56"/><circle cx="562.275" cy="616.771" r="4.381" fill="#2f2e41"/><path d="M325.703 610.416a1.533 1.533 0 00-1.533 1.533v7.889a1.533 1.533 0 003.066 0v-7.889a1.533 1.533 0 00-1.533-1.533zm8.325 0a1.533 1.533 0 00-1.533 1.533v7.889a1.533 1.533 0 003.067 0v-7.889a1.533 1.533 0 00-1.534-1.533zm8.326 0a1.533 1.533 0 00-1.533 1.533v7.889a1.533 1.533 0 003.066 0v-7.889a1.533 1.533 0 00-1.533-1.533zm8.326 0a1.533 1.533 0 00-1.534 1.533v7.889a1.533 1.533 0 003.067 0v-7.889a1.533 1.533 0 00-1.534-1.533z" fill="#2f2e41"/><circle cx="357.322" cy="660.779" r="23.176" fill="#ffb8b8"/><circle cx="519.231" cy="665.236" r="23.176" fill="#ffb8b8"/><path d="M758.448 385.496c-2.29-3.788-5.004-7.832-9.254-9.07-4.922-1.432-9.978 1.414-14.266 4.222a415.722 415.722 0 00-36.997 27.258l.013.147c9.203-.635 16.84 23.835 26.042 23.2 6.65-.458 15.091-26.084 20.967-29.23 2.23-1.193 4.403-2.787 6.93-2.898 3.139-.138 5.876 2.054 8.027 4.344 12.723 13.549 16.405 34.268 30.679 46.171a453 453 0 00-32.141-64.144z" fill="#3f3d56"/><path d="M782.937 418.403q10.068 18.185 21.358 35.647v.009c-.045.41-.107.82-.17 1.23q-1.364-2.086-2.7-4.19-10.136-15.897-19.263-32.401-4.333-7.849-8.45-15.822-3.183-6.178-6.231-12.426a263.442 263.442 0 01-1.703-3.592c-1.32-2.817-2.62-5.652-4.011-8.433-1.587-3.173-3.521-6.49-6.436-8.62a8.78 8.78 0 00-4.573-1.765 12.771 12.771 0 00-6.623 1.899 213.146 213.146 0 00-41.921 28.908 218.446 218.446 0 00-34.051 37.803c-.303.428-1.016.018-.713-.419a225.69 225.69 0 013.663-5.018 219.484 219.484 0 0156.024-52.253q5.441-3.53 11.097-6.73a155.895 155.895 0 015.75-3.138 14.02 14.02 0 016.097-1.89c7.398-.115 11.231 8.264 13.86 13.897q1.23 2.66 2.505 5.313 4.8 10.028 9.975 19.895 3.182 6.084 6.516 12.096zm-81.451-23.695c-.43-.479-.857-.958-1.29-1.437-3.41-3.772-7.07-7.5-11.754-9.663a17.054 17.054 0 00-7.145-1.657 20.39 20.39 0 00-7.419 1.618 42.714 42.714 0 00-3.285 1.492 105 105 0 00-3.638 1.944q-3.383 1.872-6.68 3.909-6.557 4.053-12.704 8.724-3.187 2.423-6.242 5.005-2.841 2.398-5.568 4.924c-.388.359-.969-.221-.58-.58.479-.446.964-.89 1.448-1.328q2.053-1.856 4.172-3.64 3.864-3.261 7.928-6.27 6.32-4.68 13.074-8.727 3.376-2.02 6.844-3.87a59.338 59.338 0 012.119-1.082 33.778 33.778 0 015.037-2.05 17.919 17.919 0 017.607-.748 19.806 19.806 0 017.02 2.429c4.598 2.57 8.165 6.545 11.636 10.424.35.394-.227.977-.58.583z" fill="#3f3d56"/><path d="M667.832 412.858a5.297 5.297 0 01-3.285-.941c-2.546-1.928-2.479-6.56.203-14.159a15.983 15.983 0 018.652-9.299 14.81 14.81 0 0111.929-.07q.493.214.973.46a35.128 35.128 0 016.1 4.328 40.298 40.298 0 005.08 3.752l.597.35-.566.398c-14.44 10.166-24.23 15.18-29.683 15.18zm55.525-60.497a20.506 20.506 0 01-20.114-16.53 20.502 20.502 0 1024.183 16.125 20.592 20.592 0 01-4.069.405z" fill="#3f3d56"/><circle cx="174.554" cy="354.748" r="30.595" fill="#3f3d56" opacity=".74"/><circle cx="205.148" cy="354.748" r="30.595" fill="#ffbf63" opacity=".74"/><circle cx="190.11" cy="330.364" r="30.595" fill="#ff6584" opacity=".74"/><path fill="#3f3d56" d="M191.526 346.285l78.585-24.688.535 1.7-78.586 24.69z"/><circle cx="270.611" cy="322.162" r="3.566" fill="#3f3d56"/><path d="M780.78 482.6c5.223 3.682 10.242 7.435 15.982 10.27-.107.436-.222.882-.33 1.319a56.27 56.27 0 01-2.076-1.034c-5.821-3.049-10.83-7.194-16.295-10.795a35.157 35.157 0 00-8.789-4.403 28.995 28.995 0 00-10.046-1.177c-14.146.695-26.269 9.137-39.417 13.389-6.435 2.085-13.281 3.2-19.993 1.89-6.712-1.311-12.676-4.877-18.603-8.103-5.848-3.191-12.221-6.4-19.05-6.4-5.561.008-11.409 2.237-14.386 7.157a.668.668 0 01-1.15-.677 14.03 14.03 0 012.434-3.04c3.886-3.681 9.6-5.134 14.85-4.706 6.792.552 12.987 3.761 18.862 6.988 6.23 3.423 12.613 7.105 19.815 7.853 7.113.749 14.155-1.114 20.751-3.619 12.774-4.858 25.378-12.952 39.587-12.051 6.703.428 12.443 3.334 17.854 7.14z" fill="#3f3d56"/><path d="M221.67 224.804v1.81a9.388 9.388 0 00-1.819-.179h-9.324v20.02a11.184 11.184 0 01-11.177 11.179h-13.781v3.084a9.341 9.341 0 00.722 3.601h-1.908a10.979 10.979 0 01-.597-3.6v-3.085h-7.577v-1.783h7.577v-20.02a11.184 11.184 0 0111.178-11.178h13.78v-3.12h1.783v3.12h9.324a11.125 11.125 0 011.819.151z" fill="#ffbf63"/><path d="M199.35 210.39h-24.888a11.184 11.184 0 00-11.178 11.179v24.887a11.184 11.184 0 0011.178 11.178h24.888a11.184 11.184 0 0011.177-11.178v-24.923a11.183 11.183 0 00-11.177-11.142zm9.395 36.066a9.408 9.408 0 01-9.395 9.395h-24.888a9.408 9.408 0 01-9.395-9.395v-24.887a9.408 9.408 0 019.395-9.396h24.888a9.406 9.406 0 019.395 9.36z" fill="#3f3d56"/><path d="M183.786 255.851v1.783h1.783v-1.783zm0 0v1.783h1.783v-1.783zm37.884-31.047a11.125 11.125 0 00-1.819-.151h-24.887a11.184 11.184 0 00-11.178 11.178v24.887a10.979 10.979 0 00.597 3.601 11.182 11.182 0 0010.58 7.577h24.888a11.184 11.184 0 0011.178-11.178v-24.887a11.178 11.178 0 00-9.36-11.027zm7.577 35.914a9.408 9.408 0 01-9.396 9.395h-24.887a9.409 9.409 0 01-9.395-9.395v-24.887a9.408 9.408 0 019.395-9.395h24.887a9.399 9.399 0 019.396 9.395zm-45.461-4.867v1.783h1.783v-1.783z" fill="#3f3d56"/><path d="M166.181 488.225H60.463a2.783 2.783 0 00-2.78 2.773v6.266a375.14 375.14 0 0012.648 39.408h95.85a2.77 2.77 0 002.772-2.772v-42.902a2.775 2.775 0 00-2.772-2.773z" fill="#ffbf63"/><path d="M156.109 550.586H75.973a296.066 296.066 0 002.933 6.668h77.203c4.35.062 4.305-6.73 0-6.668zm0 15.279H82.926q1.605 3.356 3.298 6.667h69.885c4.35.063 4.305-6.72 0-6.667zm0 15.287H90.726a322.975 322.975 0 003.672 6.667h61.71c4.35.063 4.306-6.73 0-6.667z" fill="#e4e4e4"/><path d="M704.176 170.256h-.508a10.206 10.206 0 014.555 1.077h-2.312a9.405 9.405 0 00-9.395 9.395v24.888a9.405 9.405 0 009.395 9.395h1.474a10.216 10.216 0 01-3.717.705h.508a10.298 10.298 0 0010.286-10.286v-24.888a10.298 10.298 0 00-10.286-10.286z" fill="#3f3d56"/><path d="M704.176 170.256h-.508a10.206 10.206 0 014.555 1.077h-2.312a9.405 9.405 0 00-9.395 9.395v24.888a9.405 9.405 0 009.395 9.395h1.474a10.216 10.216 0 01-3.717.705h.508a10.298 10.298 0 0010.286-10.286v-24.888a10.298 10.298 0 00-10.286-10.286z" opacity=".21"/><path d="M638.214 170.256h-.508a10.206 10.206 0 014.554 1.077h-2.311a9.405 9.405 0 00-9.395 9.395v24.888a9.405 9.405 0 009.395 9.395h1.473a10.216 10.216 0 01-3.716.705h.508A10.298 10.298 0 00648.5 205.43v-24.888a10.298 10.298 0 00-10.286-10.286z" fill="#ffbf63"/><path d="M638.214 170.256h-.508a10.206 10.206 0 014.554 1.077h-2.311a9.405 9.405 0 00-9.395 9.395v24.888a9.405 9.405 0 009.395 9.395h1.473a10.216 10.216 0 01-3.716.705h.508A10.298 10.298 0 00648.5 205.43v-24.888a10.298 10.298 0 00-10.286-10.286z" opacity=".21"/><path d="M640.048 215.088a9.405 9.405 0 01-9.395-9.394v-24.889a9.405 9.405 0 019.395-9.394h2.312a10.206 10.206 0 00-4.555-1.078h-24.888a10.298 10.298 0 00-10.286 10.287v24.888a10.298 10.298 0 0010.286 10.286h24.888a10.216 10.216 0 003.717-.706z" fill="#ffbf63"/><path d="M706.01 215.088a9.405 9.405 0 01-9.394-9.394v-24.889a9.405 9.405 0 019.394-9.394h2.312a10.206 10.206 0 00-4.554-1.078h-24.889a10.298 10.298 0 00-10.286 10.287v24.888a10.298 10.298 0 0010.286 10.286h24.889a10.216 10.216 0 003.716-.706z" fill="#3f3d56"/><path d="M735.4 176.527a380.7 380.7 0 0125.02 39.265h-15.58a10.302 10.302 0 01-10.287-10.286v-24.888a10.275 10.275 0 01.847-4.09z" fill="#ff6584"/><path d="M704.157 228.851l-8.718-13.059-6.373-9.546a3.546 3.546 0 00-6.338.918l-2.683 8.628-5.402 17.338a3.553 3.553 0 005.26 4.073l1.916-1.185a2.661 2.661 0 014.047 2.023l1.756 19.165a3.558 3.558 0 003.53 3.227c.107 0 .213-.01.33-.018l2.691-.24a3.545 3.545 0 003.21-3.86l-1.81-19.789a2.657 2.657 0 013.761-2.656l.393.178a3.547 3.547 0 004.43-5.197z" fill="#ccc"/></svg>