<svg id="Capa_1" data-name="Capa 1" xmlns="http://www.w3.org/2000/svg" viewBox="0 0 203.03 160.74"><defs><style>.cls-1{fill:#5fc5ef;}.cls-2{fill:#fdc93b;}.cls-3{fill:#cc7115;}.cls-4{fill:#56b9d7;}.cls-5{fill:#eab93e;}.cls-6{fill:#8e6a49;}.cls-7{fill:#c8e6f0;}</style></defs><g id="Nave"><path class="cls-1" d="M182.39,141.8s19.67-26.57,66.26,15c0,0-28.4-11.59-41.15,3.4Z" transform="translate(-62.37 -77.97)"/><path class="cls-2" d="M104.15,81.51,131.83,93l82.81,69.64a12.86,12.86,0,0,1,2.75,18l-14.17,19.29a12.86,12.86,0,0,1-18,2.75l-88.43-59L74.76,121.51Z" transform="translate(-62.37 -77.97)"/><path class="cls-3" d="M265.4,229.34s-71-7.88-50.21-36.88Z" transform="translate(-62.37 -77.97)"/><path class="cls-3" d="M265.37,229.38s-28.76-65.45-50.21-36.89Z" transform="translate(-62.37 -77.97)"/><path class="cls-2" d="M241,211.45S205.54,207.51,216,193Z" transform="translate(-62.37 -77.97)"/><path class="cls-2" d="M241,211.47s-14.36-32.68-25.07-18.42Z" transform="translate(-62.37 -77.97)"/><path class="cls-1" d="M74.76,121.51l29.39-40S34.83,60.36,74.76,121.51Z" transform="translate(-62.37 -77.97)"/><path class="cls-4" d="M74.76,121.51l15.37-20.92L65.75,82.68C60.17,88.2,60.42,99.55,74.76,121.51Z" transform="translate(-62.37 -77.97)"/><path class="cls-1" d="M154.35,180s-19.47,26.71,34.17,58.73c0,0-19.56-23.65-9.07-40.29Z" transform="translate(-62.37 -77.97)"/><path class="cls-5" d="M74.76,121.51l22.06,22.18,88.43,59a12.86,12.86,0,0,0,18-2.75L211,189.36,90.13,100.59Z" transform="translate(-62.37 -77.97)"/><circle class="cls-6" cx="51.72" cy="40.22" r="18.11"/><circle class="cls-7" cx="51.72" cy="40.22" r="15.39"/><path class="cls-1" d="M105,130.59a15.39,15.39,0,0,0,21.51-3.29l-24.8-18.22A15.39,15.39,0,0,0,105,130.59Z" transform="translate(-62.37 -77.97)"/></g></svg>