<?xml version="1.0" standalone="no"?>
<!DOCTYPE svg PUBLIC "-//W3C//DTD SVG 20010904//EN"
 "http://www.w3.org/TR/2001/REC-SVG-20010904/DTD/svg10.dtd">
<svg version="1.0" xmlns="http://www.w3.org/2000/svg"
 width="300.000000pt" height="300.000000pt" viewBox="0 0 300.000000 300.000000"
 preserveAspectRatio="xMidYMid meet">
<metadata>
Created by potrace 1.14, written by Peter Selinger 2001-2017
</metadata>
<g transform="translate(0.000000,300.000000) scale(0.100000,-0.100000)"
fill="#000000" stroke="none">
<path d="M240 2978 c-94 -35 -149 -85 -202 -183 l-33 -60 -3 -1209 c-3 -1296
-4 -1265 45 -1345 26 -41 84 -101 124 -126 89 -57 38 -55 1335 -55 1310 0
1223 -4 1329 61 68 42 121 111 145 188 19 61 20 96 20 1251 0 1162 0 1189 -20
1253 -22 71 -84 150 -150 192 -91 57 -39 55 -1340 54 -1182 0 -1196 0 -1250
-21z"/>
</g>
</svg>
