<svg id="Capa_1" data-name="Capa 1" xmlns="http://www.w3.org/2000/svg" viewBox="0 0 203.03 160.74"><defs><style>.cls-1{fill:#5fc5ef}.cls-2{fill:#fdc93b}.cls-3{fill:#cc7115}</style></defs><g id="Nave"><path class="cls-1" d="M182.39 141.8s19.67-26.57 66.26 15c0 0-28.4-11.59-41.15 3.4z" transform="translate(-62.37 -77.97)"/><path class="cls-2" d="M104.15 81.51L131.83 93l82.81 69.64a12.86 12.86 0 012.75 18l-14.17 19.29a12.86 12.86 0 01-18 2.75l-88.43-59-22.03-22.17z" transform="translate(-62.37 -77.97)"/><path class="cls-3" d="M265.4 229.34s-71-7.88-50.21-36.88z" transform="translate(-62.37 -77.97)"/><path class="cls-3" d="M265.37 229.38s-28.76-65.45-50.21-36.89z" transform="translate(-62.37 -77.97)"/><path class="cls-2" d="M241 211.45s-35.46-3.94-25-18.45z" transform="translate(-62.37 -77.97)"/><path class="cls-2" d="M241 211.47s-14.36-32.68-25.07-18.42z" transform="translate(-62.37 -77.97)"/><path class="cls-1" d="M74.76 121.51l29.39-40s-69.32-21.15-29.39 40z" transform="translate(-62.37 -77.97)"/><path d="M74.76 121.51l15.37-20.92-24.38-17.91c-5.58 5.52-5.33 16.87 9.01 38.83z" transform="translate(-62.37 -77.97)" fill="#56b9d7"/><path class="cls-1" d="M154.35 180s-19.47 26.71 34.17 58.73c0 0-19.56-23.65-9.07-40.29z" transform="translate(-62.37 -77.97)"/><path d="M74.76 121.51l22.06 22.18 88.43 59a12.86 12.86 0 0018-2.75l7.75-10.58-120.87-88.77z" transform="translate(-62.37 -77.97)" fill="#eab93e"/><circle cx="51.72" cy="40.22" r="18.11" fill="#8e6a49"/><circle cx="51.72" cy="40.22" r="15.39" fill="#c8e6f0"/><path class="cls-1" d="M105 130.59a15.39 15.39 0 0021.51-3.29l-24.8-18.22a15.39 15.39 0 003.29 21.51z" transform="translate(-62.37 -77.97)"/></g></svg>