<svg id="Capa_1" data-name="Capa 1" xmlns="http://www.w3.org/2000/svg" viewBox="0 0 203.03 160.74"><defs><style>.cls-1{fill:#5fc5ef;}.cls-2{fill:#fdc93b;}.cls-3{fill:#cc7115;}.cls-4{fill:#56b9d7;}.cls-5{fill:#eab93e;}.cls-6{fill:#8e6a49;}.cls-7{fill:#c8e6f0;}</style></defs><g id="Nave"><path class="cls-1" d="M232.37,192.4s19.67-26.56,66.26,15c0,0-28.41-11.6-41.15,3.39Z" transform="translate(-112.34 -128.57)"/><path class="cls-2" d="M154.13,132.11l27.67,11.53,82.81,69.63a12.86,12.86,0,0,1,2.75,18l-14.17,19.29a12.86,12.86,0,0,1-18,2.75l-88.43-59-22-22.17Z" transform="translate(-112.34 -128.57)"/><path class="cls-3" d="M315.37,280s-71.05-7.88-50.21-36.89Z" transform="translate(-112.34 -128.57)"/><path class="cls-3" d="M315.35,280s-28.77-65.44-50.21-36.89Z" transform="translate(-112.34 -128.57)"/><path class="cls-2" d="M291,262.05s-35.48-3.93-25.08-18.42Z" transform="translate(-112.34 -128.57)"/><path class="cls-2" d="M291,262.07s-14.36-32.68-25.07-18.42Z" transform="translate(-112.34 -128.57)"/><path class="cls-1" d="M124.74,172.12l29.39-40S84.81,111,124.74,172.12Z" transform="translate(-112.34 -128.57)"/><path class="cls-4" d="M124.74,172.12l15.37-20.93-24.39-17.91C110.15,138.8,110.39,150.15,124.74,172.12Z" transform="translate(-112.34 -128.57)"/><path class="cls-1" d="M204.32,230.58s-19.47,26.71,34.17,58.73c0,0-19.56-23.64-9.06-40.29Z" transform="translate(-112.34 -128.57)"/><path class="cls-5" d="M124.74,172.12l22,22.17,88.43,59a12.86,12.86,0,0,0,18-2.75L261,240,140.11,151.19Z" transform="translate(-112.34 -128.57)"/><circle class="cls-6" cx="51.72" cy="40.22" r="18.11"/><circle class="cls-7" cx="51.72" cy="40.22" r="15.39"/><path class="cls-1" d="M155,181.2a15.39,15.39,0,0,0,21.51-3.29l-24.8-18.22A15.39,15.39,0,0,0,155,181.2Z" transform="translate(-112.34 -128.57)"/></g></svg>