<?xml version="1.0" encoding="utf-8"?>
<!-- Generator: Adobe Illustrator 24.2.3, SVG Export Plug-In . SVG Version: 6.00 Build 0)  -->
<svg version="1.1" id="Capa_1" xmlns="http://www.w3.org/2000/svg" xmlns:xlink="http://www.w3.org/1999/xlink" x="0px" y="0px"
	 viewBox="0 0 400 400" style="enable-background:new 0 0 400 400;" xml:space="preserve">
<style type="text/css">
	.st0{fill:#5FC5EF;}
	.st1{fill:#FDC93B;}
	.st2{fill:#CC7115;}
	.st3{fill:#56B9D7;}
	.st4{fill:#EAB93E;}
	.st5{fill:#8E6A49;}
	.st6{fill:#C8E6F0;}
</style>
<g id="Nave_1_">
	<path class="st0" d="M232.37,192.4c0,0,19.67-26.56,66.26,15.05c0,0-28.41-11.6-41.15,3.4L232.37,192.4z"/>
	<path class="st1" d="M154.13,132.11l27.67,11.53l82.81,69.63c5.72,4.2,6.95,12.25,2.75,17.97l-14.17,19.29
		c-4.2,5.72-12.25,6.95-17.97,2.75l-88.43-58.99l-22.05-22.17L154.13,132.11z"/>
	<g>
		<g>
			<path class="st2" d="M315.37,279.95c0,0-71.05-7.88-50.21-36.89L315.37,279.95z"/>
			<path class="st2" d="M315.35,279.98c0,0-28.77-65.44-50.21-36.89L315.35,279.98z"/>
		</g>
	</g>
	<g>
		<g>
			<path class="st1" d="M291,262.05c0,0-35.48-3.94-25.07-18.42L291,262.05z"/>
			<path class="st1" d="M290.98,262.07c0,0-14.36-32.68-25.07-18.42L290.98,262.07z"/>
		</g>
	</g>
	<path class="st0" d="M124.74,172.12l29.39-40.01C154.13,132.11,84.81,110.96,124.74,172.12z"/>
	<g>
		<path class="st3" d="M124.74,172.12l15.37-20.92l-24.39-17.91C110.15,138.8,110.39,150.15,124.74,172.12z"/>
	</g>
	<path class="st0" d="M204.32,230.58c0,0-19.47,26.71,34.17,58.73c0,0-19.56-23.64-9.06-40.29L204.32,230.58z"/>
	<g>
		<path class="st4" d="M124.74,172.12l22.05,22.17l88.43,58.99c5.72,4.2,13.77,2.97,17.97-2.75l7.76-10.56l-120.84-88.77
			L124.74,172.12z"/>
	</g>
	<circle class="st5" cx="164.07" cy="168.8" r="18.11"/>
	<circle class="st6" cx="164.07" cy="168.8" r="15.39"/>
	<g>
		<g>
			<path class="st0" d="M154.96,181.2c6.85,5.03,16.48,3.56,21.51-3.29l-24.8-18.22C146.64,166.53,148.11,176.16,154.96,181.2z"/>
		</g>
	</g>
</g>
</svg>
